<?xml version="1.0" standalone="no"?><!DOCTYPE svg PUBLIC "-//W3C//DTD SVG 1.1//EN" "http://www.w3.org/Graphics/SVG/1.1/DTD/svg11.dtd"><svg t="1641467128468" class="icon" viewBox="0 0 1024 1024" version="1.1" xmlns="http://www.w3.org/2000/svg" p-id="8176" width="24" height="24" xmlns:xlink="http://www.w3.org/1999/xlink"><defs><style type="text/css"></style></defs><path d="M252.068571 906.496h520.283429c89.581714 0 134.144-44.562286 134.144-132.845714V250.331429c0-88.283429-44.562286-132.845714-134.144-132.845715H252.068571c-89.142857 0-134.582857 44.141714-134.582857 132.845715V773.668571c0 88.704 45.44 132.845714 134.582857 132.845715z m260.150858-317.988571c-81.865143 0-147.017143-69.430857-147.017143-161.572572 0-86.144 65.152-156.434286 147.017143-156.434286 81.846857 0 146.998857 70.290286 146.998857 156.434286 0 92.141714-65.152 161.572571-147.017143 161.572572z m0 66.852571c151.716571 0 254.134857 83.565714 302.573714 173.568-0.438857 8.137143-9.435429 13.293714-22.308572 13.293714H232.374857c-12.854857 0-22.290286-5.156571-22.710857-13.293714 48.420571-90.002286 150.857143-173.568 302.573714-173.568z" p-id="8177" fill="#396aff"></path></svg>