<?xml version="1.0" standalone="no"?><!DOCTYPE svg PUBLIC "-//W3C//DTD SVG 1.1//EN" "http://www.w3.org/Graphics/SVG/1.1/DTD/svg11.dtd"><svg t="1640829815543" class="icon" viewBox="0 0 1024 1024" version="1.1" xmlns="http://www.w3.org/2000/svg" p-id="2329" width="16" height="16" xmlns:xlink="http://www.w3.org/1999/xlink"><defs><style type="text/css"></style></defs><path d="M512 832.362667a48 48 0 1 0 0-96 48 48 0 0 0 0 96zM512 960C264.96 960 64 759.04 64 512S264.96 64 512 64s448 200.96 448 448-200.96 448-448 448z m0-831.701333C300.416 128.298667 128.298667 300.416 128.298667 512c0 211.541333 172.117333 383.701333 383.701333 383.701333 211.541333 0 383.701333-172.16 383.701333-383.701333 0-211.584-172.16-383.701333-383.701333-383.701333z m0 545.408a32 32 0 0 1-32-32v-54.122667c0-52.352 40-92.352 75.328-127.637333 25.877333-25.92 52.672-52.693333 52.672-74.026667 0-53.333333-43.072-96.725333-96-96.725333-53.824 0-96 41.536-96 94.549333a32 32 0 0 1-64 0c0-87.424 71.765333-158.549333 160-158.549333s160 72.085333 160 160.725333c0 47.893333-36.330667 84.202667-71.424 119.296-27.84 27.776-56.576 56.512-56.576 82.346667v54.101333c0 17.664-14.336 32.042667-32 32.042667z" p-id="2330" fill="#999999"></path></svg>